<svg xmlns="http://www.w3.org/2000/svg" width="105" height="50" viewBox="0 0 105 50">
  <g id="Logo" transform="translate(-72 -15)">
    <path id="Icon_awesome-american-sign-language-interpreting" data-name="Icon awesome-american-sign-language-interpreting" d="M19.975,11.87a6.277,6.277,0,0,0-4.451-.243c2.929,0,4.9,1.28,5.883,3.161a1.682,1.682,0,0,1-1.624,2.379,1.682,1.682,0,0,1,1.624,2.379,6.221,6.221,0,0,1-5.52,3.178c-.038,0-6.495-.538-6.495-.538L4.827,24.271a1.281,1.281,0,0,1-1.643-.486L.128,18.226A1.082,1.082,0,0,1,.605,16.75L4.6,14.683l2.827-4.637A13.533,13.533,0,0,1,12.907.876a1.95,1.95,0,0,1,2.579.226,1.559,1.559,0,0,1-.248,2.345A11.633,11.633,0,0,0,13,5.669a12.208,12.208,0,0,1,5.1-1.754,1.778,1.778,0,0,1,2.044,1.442,1.68,1.68,0,0,1-1.586,1.858,8.3,8.3,0,0,0-3.037.955,10.407,10.407,0,0,1,6.055.695,1.6,1.6,0,0,1,.84,2.241,1.929,1.929,0,0,1-2.445.764ZM18.1,16.212a2.477,2.477,0,0,0-2.216-1.268,2.568,2.568,0,0,0-1.731.649,2.119,2.119,0,0,0-.714,1.574,2.349,2.349,0,0,0,2.445,2.223A2.477,2.477,0,0,0,18.1,18.122a1.841,1.841,0,0,1,1.6-.955A1.841,1.841,0,0,1,18.1,16.212Zm25.769-2.327a1.082,1.082,0,0,1-.478,1.476L39.4,17.427l-2.827,4.637a13.533,13.533,0,0,1-5.482,9.17,1.954,1.954,0,0,1-2.579-.226,1.559,1.559,0,0,1,.248-2.345A11.633,11.633,0,0,0,31,26.441,12.208,12.208,0,0,1,25.9,28.2a1.811,1.811,0,0,1-2.044-1.442A1.68,1.68,0,0,1,25.438,24.9a8.3,8.3,0,0,0,3.037-.955,10.407,10.407,0,0,1-6.055-.695,1.6,1.6,0,0,1-.84-2.241,1.929,1.929,0,0,1,2.445-.764,6.277,6.277,0,0,0,4.451.243c-2.929,0-4.9-1.28-5.883-3.161a1.682,1.682,0,0,1,1.624-2.379,1.682,1.682,0,0,1-1.624-2.379,6.225,6.225,0,0,1,5.635-3.178l6.38.538L39.173,7.84a1.281,1.281,0,0,1,1.643.486l3.056,5.558ZM28.113,12.721A2.477,2.477,0,0,0,25.9,13.989a1.841,1.841,0,0,1-1.6.955,1.841,1.841,0,0,1,1.6.955,2.477,2.477,0,0,0,2.216,1.268,2.568,2.568,0,0,0,1.731-.649,2.119,2.119,0,0,0,.714-1.574,2.349,2.349,0,0,0-2.445-2.223Z" transform="translate(72 25.945)" fill="#9d7871"/>
    <text id="yia_" data-name="yia;" transform="translate(120 50)" fill="#9d7871" font-size="31" font-family="Astro11"><tspan x="0" y="0">yia;</tspan></text>
  </g>
</svg>
